# xmcd
#
# Track frame offsets:
#	150
#	22870
#	42230
#	58297
#	79467
#	102435
#	120467
#	141415
#	165540
#	185002
#
# Disc length: 2733 seconds
# Revision: 4
# Processed by: cddbd v1.5.2PL0 Copyright (c) Steve Scherf et al.
# Submitted via: dBpowerAMP V12.0
#
DISCID=8a0aab0a
DTITLE=Dr. John - Afterglow
DYEAR=1995
DGENRE=Blues
TTITLE0=I Know What I've Got
TTITLE1=Gee Baby Ain't I Good to You
TTITLE2=I'm Just a Lucky So-and-So
TTITLE3=Blue Skies
TTITLE4=So Long
TTITLE5=New York City Blues
TTITLE6=Tell me You'll Wait For me
TTITLE7=There Must be a Better World Somewhere
TTITLE8=I Still Think About You
TTITLE9=I'm Confessin' (That I Love You)
EXTD=
EXTT0=
EXTT1=
EXTT2=
EXTT3=
EXTT4=
EXTT5=
EXTT6=
EXTT7=
EXTT8=
EXTT9=
PLAYORDER=
